<svg xmlns="http://www.w3.org/2000/svg" xmlns:xlink="http://www.w3.org/1999/xlink" viewBox="0 0 24 24" width="24" height="24" preserveAspectRatio="xMidYMid meet" style="width: 100%; height: 100%; transform: translate3d(0px, 0px, 0px); content-visibility: visible;"><defs><clipPath id="__lottie_element_42"><rect width="24" height="24" x="0" y="0"></rect></clipPath><clipPath id="__lottie_element_44"><path d="M0,0 L600,0 L600,600 L0,600z"></path></clipPath><clipPath id="__lottie_element_51"><path d="M0,0 L1000,0 L1000,1000 L0,1000z"></path></clipPath><clipPath id="__lottie_element_61"><path d="M0,0 L1000,0 L1000,1000 L0,1000z"></path></clipPath><mask id="__lottie_element_62"><rect fill="#ffffff" width="600" height="600" transform="matrix(0.9615384936332703,0,0,0.9615384936332703,211.53846740722656,211.53846740722656)"></rect><path fill="#000000" clip-rule="nonzero" d=" M67.22000122070312,823.7960205078125 C67.22000122070312,823.7960205078125 -126.3030014038086,1017.75 -126.3030014038086,1017.75 C-126.3030014038086,1017.75 -76.63800048828125,1067.092041015625 -76.63800048828125,1067.092041015625 C-76.63800048828125,1067.092041015625 -22.31999969482422,1121.0560302734375 -22.31999969482422,1121.0560302734375 C-22.31999969482422,1121.0560302734375 171.2030029296875,927.1019897460938 171.2030029296875,927.1019897460938 C171.2030029296875,927.1019897460938 239.677001953125,860.3419799804688 186.88099670410156,810.114013671875 C130,756 67.22000122070312,823.7960205078125 67.22000122070312,823.7960205078125" fill-opacity="1"></path></mask><clipPath id="__lottie_element_65"><path d="M0,0 L1000,0 L1000,1000 L0,1000z"></path></clipPath><path></path><clipPath id="__lottie_element_72"><path d="M0,0 L1000,0 L1000,1000 L0,1000z"></path></clipPath><path d=" M0.5009999871253967,-0.10000000149011612 C0.5009999871253967,-0.10000000149011612 -0.09300000220537186,-0.10000000149011612 -0.09300000220537186,-0.10000000149011612 C-0.09300000220537186,-0.10000000149011612 -0.09300000220537186,1.0759999752044678 -0.09300000220537186,1.0759999752044678 C-0.09300000220537186,1.0759999752044678 0.5009999871253967,1.0759999752044678 0.5009999871253967,1.0759999752044678 C0.5009999871253967,1.0759999752044678 0.5009999871253967,-0.10000000149011612 0.5009999871253967,-0.10000000149011612" fill-opacity="1"></path><clipPath id="__lottie_element_79"><path d="M0,0 L1000,0 L1000,1000 L0,1000z"></path></clipPath>
<mask id="__lottie_element_80"><rect fill="#ffffff" width="600" height="600" transform="matrix(0.9615384936332703,0,0,0.9615384936332703,211.53846740722656,211.53846740722656)"></rect><path fill="#000000" clip-rule="nonzero" d=" M67.44400024414062,823.5819702148438 C67.44400024414062,823.5819702148438 -126.11100006103516,1017.5659790039062 -126.11100006103516,1017.5659790039062 C-126.11100006103516,1017.5659790039062 -76.44599914550781,1066.907958984375 -76.44599914550781,1066.907958984375 C-76.44599914550781,1066.907958984375 -22.128000259399414,1120.8719482421875 -22.128000259399414,1120.8719482421875 C-22.128000259399414,1120.8719482421875 171.427001953125,926.8880004882812 171.427001953125,926.8880004882812 C171.427001953125,926.8880004882812 239.9010009765625,860.1279907226562 187.10499572753906,809.9000244140625 C130.2239990234375,755.7860107421875 67.44400024414062,823.5819702148438 67.44400024414062,823.5819702148438" fill-opacity="1"></path></mask><clipPath id="__lottie_element_83"><path d="M0,0 L1000,0 L1000,1000 L0,1000z"></path></clipPath><path></path><clipPath id="__lottie_element_90"><path d="M0,0 L1000,0 L1000,1000 L0,1000z"></path></clipPath><path d=" M0.5009999871253967,-0.10000000149011612 C0.5009999871253967,-0.10000000149011612 -0.09300000220537186,-0.10000000149011612 -0.09300000220537186,-0.10000000149011612 C-0.09300000220537186,-0.10000000149011612 -0.09300000220537186,1.0759999752044678 -0.09300000220537186,1.0759999752044678 C-0.09300000220537186,1.0759999752044678 0.5009999871253967,1.0759999752044678 0.5009999871253967,1.0759999752044678 C0.5009999871253967,1.0759999752044678 0.5009999871253967,-0.10000000149011612 0.5009999871253967,-0.10000000149011612" fill-opacity="1"></path></defs><g clip-path="url(#__lottie_element_42)"><g clip-path="url(#__lottie_element_44)" transform="matrix(0.03999999910593033,0,0,0.03999999910593033,0,0)" opacity="1" style="display: block;"><g clip-path="url(#__lottie_element_79)" transform="matrix(1.0399999618530273,0,0,1.0399999618530273,-220,-220)" opacity="1" style="display: none;"><g mask="url(#__lottie_element_80)"><g clip-path="url(#__lottie_element_90)" transform="matrix(1,0,0,1,0,0)" opacity="1" style="display: block;"><g transform="matrix(25,0,0,25,200,200)" opacity="1" style="display: block;"><g opacity="1" transform="matrix(1,0,0,1,12,12.288000106811523)"><path fill="rgb(88,101,242)" fill-opacity="1" d=" M-8.000072479248047,-0.2881828546524048 C-7.999939918518066,-4.706087589263916 -4.418000221252441,-8.288000106811523 0,-8.288000106811523 C4.418000221252441,-8.288000106811523 7.999929904937744,-4.706122875213623 8.000077247619629,-0.2881803512573242 C8.000102043151855,0.40481603145599365 7.954133987426758,1.0718117952346802 7.854161262512207,1.7118114233016968 C7.854161262512207,1.7118114233016968 6.000174522399902,1.7118886709213257 6.000174522399902,1.7118886709213257 C5.05618143081665,1.7119280099868774 4.167206287384033,2.156961679458618 3.6002418994903564,2.911979913711548 C3.6002418994903564,2.911979913711548 1.6273654699325562,5.542043209075928 1.6273654699325562,5.542043209075928 C1.1583948135375977,6.168058395385742 1.03643000125885,6.988057613372803 1.3044586181640625,7.72304105758667 C1.8895213603973389,9.332005500793457 3.8875467777252197,10.287915229797363 5.482487678527832,9.131856918334961 C8.839362144470215,6.700735092163086 10.00019359588623,3.3797173500061035 10.000062942504883,-0.28826361894607544 C9.999899864196777,-5.811119556427002 5.5229997634887695,-10.288000106811523 0,-10.288000106811523 C-5.5229997634887695,-10.288000106811523 -9.99986457824707,-5.81110954284668 -10.000057220458984,-0.2882695198059082 C-10.000213623046875,3.3797030448913574 -8.83936882019043,6.700726509094238 -5.482500076293945,9.131853103637695 C-3.8875625133514404,10.28791332244873 -1.8895366191864014,9.33200740814209 -1.304471492767334,7.7230448722839355 C-1.036441683769226,6.988062381744385 -1.1584053039550781,6.168063640594482 -1.627374529838562,5.54204797744751 C-1.627374529838562,5.54204797744751 -3.600245475769043,2.911982774734497 -3.600245475769043,2.911982774734497 C-4.167208194732666,2.156964063644409 -5.056182384490967,1.7119290828704834 -6.0001749992370605,1.7118881940841675 C-6.0001749992370605,1.7118881940841675 -7.854179859161377,1.7118425369262695 -7.854179859161377,1.7118425369262695 C-7.954162120819092,1.071841835975647 -8.000097274780273,0.40481364727020264 -8.000072479248047,-0.2881828546524048z"></path></g></g></g><g clip-path="url(#__lottie_element_83)" style="display: none;"><g style="display: none;"><g><path></path></g></g></g></g></g><g clip-path="url(#__lottie_element_61)" style="display: block;" transform="matrix(1.0399999618530273,0,0,1.0399999618530273,-220,-220)" opacity="1"><g mask="url(#__lottie_element_62)"><g clip-path="url(#__lottie_element_72)" style="display: block;" transform="matrix(1,0,0,1,0,0)" opacity="1"><g style="display: block;" transform="matrix(25,0,0,25,200,200)" opacity="1"><g opacity="1" transform="matrix(1,0,0,1,12,12.288000106811523)"><path fill="#A6ABB1" fill-opacity="1" d=" M-8,-0.2879999876022339 C-8,-4.705999851226807 -4.418000221252441,-8.288000106811523 0,-8.288000106811523 C4.418000221252441,-8.288000106811523 8,-4.705999851226807 8,-0.2879999876022339 C8,0.4050000011920929 7.953999996185303,1.0720000267028809 7.854000091552734,1.7120000123977661 C7.854000091552734,1.7120000123977661 6,1.7120000123977661 6,1.7120000123977661 C5.056000232696533,1.7120000123977661 4.166999816894531,2.1570000648498535 3.5999999046325684,2.9119999408721924 C3.5999999046325684,2.9119999408721924 1.6269999742507935,5.541999816894531 1.6269999742507935,5.541999816894531 C1.1579999923706055,6.168000221252441 1.0360000133514404,6.98799991607666 1.3040000200271606,7.7230000495910645 C1.8890000581741333,9.331999778747559 3.88700008392334,10.288000106811523 5.48199987411499,9.131999969482422 C8.83899974822998,6.701000213623047 10,3.380000114440918 10,-0.2879999876022339 C10,-5.810999870300293 5.5229997634887695,-10.288000106811523 0,-10.288000106811523 C-5.5229997634887695,-10.288000106811523 -10,-5.810999870300293 -10,-0.2879999876022339 C-10,3.380000114440918 -8.83899974822998,6.701000213623047 -5.48199987411499,9.131999969482422 C-3.88700008392334,10.288000106811523 -1.8890000581741333,9.331999778747559 -1.3040000200271606,7.7230000495910645 C-1.0360000133514404,6.98799991607666 -1.1579999923706055,6.168000221252441 -1.6269999742507935,5.541999816894531 C-1.6269999742507935,5.541999816894531 -3.5999999046325684,2.9119999408721924 -3.5999999046325684,2.9119999408721924 C-4.166999816894531,2.1570000648498535 -5.056000232696533,1.7120000123977661 -6,1.7120000123977661 C-6,1.7120000123977661 -7.854000091552734,
1.7120000123977661 -7.854000091552734,1.7120000123977661 C-7.953999996185303,1.0720000267028809 -8,0.4050000011920929 -8,-0.2879999876022339z"></path></g></g></g><g clip-path="url(#__lottie_element_65)" style="display: none;"><g style="display: none;"><g><path></path></g></g></g></g></g><g clip-path="url(#__lottie_element_51)" transform="matrix(1,0,0,1,-200,-200)" opacity="1" style="display: none;"><g style="display: none;"><g><path stroke-linecap="round" stroke-linejoin="miter" fill-opacity="0" stroke-miterlimit="4"></path></g></g><g style="display: none;"><g><path stroke-linecap="round" stroke-linejoin="miter" fill-opacity="0" stroke-miterlimit="4"></path></g></g></g><g style="display: none;"><g><path stroke-linecap="round" stroke-linejoin="miter" fill-opacity="0" stroke-miterlimit="4"></path></g></g></g></g></svg>