<svg xmlns="http://www.w3.org/2000/svg" x="0px" y="0px" width="100" height="100" viewBox="0,0,256,256">
<defs><linearGradient x1="23.983" y1="13.771" x2="49.987" y2="55.385" gradientUnits="userSpaceOnUse" id="color-1_S6odLj8qKMjU_gr1"><stop offset="0" stop-color="#2b2d31"></stop><stop offset="0.523" stop-color="#2b2d31"></stop><stop offset="1" stop-color="#949ba4"></stop></linearGradient><linearGradient x1="23.35" y1="12.757" x2="38.376" y2="36.803" gradientUnits="userSpaceOnUse" id="color-2_S6odLj8qKMjU_gr2"><stop offset="0" stop-color="#949ba4"></stop><stop offset="1" stop-color="#949ba4"></stop></linearGradient><linearGradient x1="15.171" y1="5.396" x2="47.447" y2="57.049" gradientUnits="userSpaceOnUse" id="color-3_S6odLj8qKMjU_gr3"><stop offset="0" stop-color="#949ba4"></stop><stop offset="1" stop-color="#949ba4"></stop></linearGradient></defs><g fill="none" fill-rule="nonzero" stroke="none" stroke-width="1" stroke-linecap="butt" stroke-linejoin="miter" stroke-miterlimit="10" stroke-dasharray="" stroke-dashoffset="0" font-family="none" font-weight="none" font-size="none" text-anchor="none" style="mix-blend-mode: normal"><g transform="scale(5.33333,5.33333)"><circle cx="31" cy="25" r="11" fill="url(#color-1_S6odLj8qKMjU_gr1)"></circle><path d="M34.5,31h-7l-3.5,-6l3.5,-6h7l3.5,6z" fill="url(#color-2_S6odLj8qKMjU_gr2)"></path><path d="M31,8h-17.5c-0.69,0 -1.32,0.28 -1.77,0.73c-0.45,0.45 -0.73,1.08 -0.73,1.77c0,1.38 1.12,2.5 2.5,2.5h4.5c0.28,0 0.55,0.06 0.8,0.17c0.7,0.31 1.2,1.01 1.2,1.83c0,0.55 -0.22,1.05 -0.59,1.41c-0.36,0.37 -0.86,0.59 -1.41,0.59h-10.5c-0.83,0 -1.5,0.67 -1.5,1.5c0,0.83 0.67,1.5 1.5,1.5h7.5c1.1,0 2,0.9 2,2c0,0.55 -0.22,1.05 -0.59,1.41c-0.36,0.37 -0.86,0.59 -1.41,0.59h-4.5c-0.83,0 -1.5,0.67 -1.5,1.5c0,0.83 0.67,1.5 1.5,1.5h3.63c0.99,8.45 8.16,15 16.87,15c9.39,0 17,-7.61 17,-17c0,-9.39 -7.61,-17 -17,-17zM31,34.5c-5.244,0 -9.5,-4.256 -9.5,-9.5c0,-5.244 4.256,-9.5 9.5,-9.5c5.244,0 9.5,4.256 9.5,9.5c0,5.244 -4.256,9.5 -9.5,9.5zM2.5,20h-1c-0.828,0 -1.5,-0.672 -1.5,-1.5v0c0,-0.828 0.672,-1.5 1.5,-1.5h1c0.828,0 1.5,0.672 1.5,1.5v0c0,0.828 -0.672,1.5 -1.5,1.5z" fill="url(#color-3_S6odLj8qKMjU_gr3)"></path></g></g>
</svg>